# xmcd
#
# Track frame offsets: 
#        150
#        17730
#        36145
#        54330
#        68370
#        83342
#        95607
#        108830
#
# Disc length: 1651 seconds
#
# Revision: 0
# Processed by: cddbd v1.5.2PL0 Copyright (c) Steve Scherf et al.
# Submitted via: ExactAudioCopy v0.99pb5
#
DISCID=4f067108
DTITLE=Various Artist - Play-A-Hit Country Vol 3
DYEAR=1999
DGENRE=Country
TTITLE0=Dixie Chicks - Ready To Run
TTITLE1=Mark Wills - She's In Love
TTITLE2=Doug Stone - Make Up In Love
TTITLE3=Andy Griggs - I'll Go Crazy
TTITLE4=Jessica Andrews - You Go First
TTITLE5=Yankee Grey - All Things Considered
TTITLE6=Warren Brothers - She Wants To Rock
TTITLE7=Steve Wariner - I'm Already Taken
EXTD=
EXTT0=
EXTT1=
EXTT2=
EXTT3=
EXTT4=
EXTT5=
EXTT6=
EXTT7=
PLAYORDER=
